<svg width="800" height="800" viewBox="0 0 800 800" fill="none" xmlns="http://www.w3.org/2000/svg">
<g clip-path="url(#clip0_1080_1088)">
<path d="M662.069 0H137.931C122.691 0 110.345 12.3453 110.345 27.5859V772.414C110.345 787.655 122.691 800 137.931 800H662.069C677.309 800 689.655 787.655 689.655 772.414V27.5859C689.655 12.3453 677.311 0 662.069 0Z" fill="#E6EEF4"/>
<path d="M400 372.414C414.855 334.58 446.289 303.448 485.752 303.448C518.966 303.448 548.566 319.063 568.511 344.828C593.531 377.159 611.214 449.131 556.456 503.891C528.677 531.669 400 662.069 400 662.069C400 662.069 271.323 531.669 243.545 503.889C188.786 449.13 206.469 377.158 231.491 344.827C251.436 319.061 281.036 303.447 314.25 303.447C353.711 303.448 385.145 334.58 400 372.414Z" fill="#D71E00"/>
<path d="M221.414 213.242C209.885 213.242 199.638 211.267 190.671 207.317C181.758 203.368 174.713 197.87 169.536 190.825C164.359 183.78 161.61 175.641 161.29 166.407H191.392C191.659 170.837 193.126 174.707 195.795 178.016C198.464 181.272 202.013 183.807 206.443 185.621C210.873 187.436 215.836 188.343 221.334 188.343C227.205 188.343 232.409 187.329 236.945 185.301C241.482 183.22 245.031 180.338 247.593 176.655C250.155 172.972 251.409 168.729 251.356 163.926C251.409 158.962 250.128 154.585 247.513 150.796C244.898 147.006 241.108 144.044 236.145 141.909C231.234 139.774 225.31 138.707 218.372 138.707H203.881V115.81H218.372C224.082 115.81 229.073 114.823 233.343 112.848C237.666 110.873 241.055 108.098 243.51 104.522C245.965 100.893 247.166 96.7029 247.113 91.9528C247.166 87.3094 246.125 83.2798 243.99 79.8639C241.909 76.3947 238.947 73.6994 235.104 71.778C231.314 69.8566 226.858 68.8959 221.734 68.8959C216.717 68.8959 212.074 69.8032 207.804 71.6179C203.534 73.4325 200.091 76.0211 197.476 79.3836C194.861 82.6927 193.473 86.6422 193.313 91.2323H164.732C164.946 82.0522 167.588 73.993 172.658 67.0545C177.782 60.0628 184.613 54.6188 193.153 50.7226C201.693 46.773 211.273 44.7982 221.894 44.7982C232.835 44.7982 242.336 46.8531 250.395 50.9628C258.508 55.0191 264.779 60.4897 269.209 67.3748C273.639 74.2598 275.854 81.8654 275.854 90.1915C275.907 99.4249 273.185 107.164 267.688 113.409C262.244 119.653 255.092 123.736 246.232 125.657V126.938C257.76 128.54 266.594 132.809 272.731 139.748C278.923 146.633 281.991 155.199 281.938 165.447C281.938 174.627 279.323 182.846 274.092 190.105C268.915 197.31 261.763 202.967 252.637 207.077C243.563 211.187 233.156 213.242 221.414 213.242Z" fill="#D71E00"/>
</g>
<defs>
<clipPath id="clip0_1080_1088">
<rect width="800" height="800" fill="white"/>
</clipPath>
</defs>
</svg>
