<svg width="800" height="800" viewBox="0 0 800 800" fill="none" xmlns="http://www.w3.org/2000/svg">
<g clip-path="url(#clip0_1080_1096)">
<path d="M662.069 0H137.931C122.691 0 110.345 12.3453 110.345 27.5859V772.414C110.345 787.655 122.691 800 137.931 800H662.069C677.309 800 689.655 787.655 689.655 772.414V27.5859C689.655 12.3453 677.311 0 662.069 0Z" fill="#E6EEF4"/>
<path d="M400 372.414C414.855 334.58 446.289 303.448 485.752 303.448C518.966 303.448 548.566 319.063 568.511 344.828C593.531 377.159 611.214 449.131 556.456 503.891C528.677 531.669 400 662.069 400 662.069C400 662.069 271.323 531.669 243.545 503.889C188.786 449.13 206.469 377.158 231.491 344.827C251.436 319.061 281.036 303.447 314.25 303.447C353.711 303.448 385.145 334.58 400 372.414Z" fill="#D71E00"/>
<path d="M159.609 180.578V156.96L229.179 47.0399H248.874V80.6645H236.865L190.031 154.879V156.16H287.142V180.578H159.609ZM237.826 211V173.372L238.146 162.805V47.0399H266.167V211H237.826Z" fill="#D71E00"/>
</g>
<defs>
<clipPath id="clip0_1080_1096">
<rect width="800" height="800" fill="white"/>
</clipPath>
</defs>
</svg>
