<svg width="800" height="800" viewBox="0 0 800 800" fill="none" xmlns="http://www.w3.org/2000/svg">
<g clip-path="url(#clip0_1080_1102)">
<path d="M662.069 0H137.931C122.691 0 110.345 12.3453 110.345 27.5859V772.414C110.345 787.655 122.691 800 137.931 800H662.069C677.309 800 689.655 787.655 689.655 772.414V27.5859C689.655 12.3453 677.311 0 662.069 0Z" fill="#E6EEF4"/>
<path d="M400 372.414C414.855 334.58 446.289 303.448 485.752 303.448C518.966 303.448 548.566 319.063 568.511 344.828C593.531 377.159 611.214 449.131 556.456 503.891C528.677 531.669 400 662.069 400 662.069C400 662.069 271.323 531.669 243.545 503.889C188.786 449.13 206.469 377.158 231.491 344.827C251.436 319.061 281.036 303.447 314.25 303.447C353.711 303.448 385.145 334.58 400 372.414Z" fill="#D71E00"/>
<path d="M219.572 213.242C208.898 213.242 199.344 211.24 190.911 207.237C182.479 203.181 175.78 197.63 170.817 190.585C165.906 183.54 163.291 175.481 162.971 166.407H191.792C192.326 173.132 195.235 178.63 200.518 182.899C205.802 187.116 212.154 189.224 219.572 189.224C225.39 189.224 230.567 187.89 235.104 185.221C239.64 182.552 243.216 178.843 245.832 174.093C248.447 169.343 249.728 163.926 249.674 157.841C249.728 151.65 248.42 146.152 245.752 141.349C243.083 136.545 239.427 132.783 234.784 130.061C230.14 127.285 224.803 125.898 218.772 125.898C213.862 125.844 209.031 126.752 204.281 128.62C199.531 130.488 195.768 132.943 192.993 135.985L166.173 131.582L174.74 47.0399H269.849V71.8581H199.318L194.594 115.33H195.555C198.597 111.754 202.894 108.792 208.444 106.443C213.995 104.042 220.079 102.841 226.698 102.841C236.625 102.841 245.485 105.189 253.277 109.886C261.07 114.529 267.207 120.934 271.691 129.1C276.174 137.266 278.416 146.606 278.416 157.121C278.416 167.955 275.907 177.616 270.89 186.102C265.926 194.535 259.015 201.179 250.155 206.036C241.348 210.84 231.154 213.242 219.572 213.242Z" fill="#D71E00"/>
</g>
<defs>
<clipPath id="clip0_1080_1102">
<rect width="800" height="800" fill="white"/>
</clipPath>
</defs>
</svg>
